<?xml version="1.0" encoding="UTF-8" standalone="no"?>
<!-- Created with Inkscape (http://www.inkscape.org/) -->

<svg
   xmlns:dc="http://purl.org/dc/elements/1.1/"
   xmlns:cc="http://creativecommons.org/ns#"
   xmlns:rdf="http://www.w3.org/1999/02/22-rdf-syntax-ns#"
   xmlns:svg="http://www.w3.org/2000/svg"
   xmlns="http://www.w3.org/2000/svg"
   xmlns:sodipodi="http://sodipodi.sourceforge.net/DTD/sodipodi-0.dtd"
   xmlns:inkscape="http://www.inkscape.org/namespaces/inkscape"
   width="100"
   height="100"
   viewBox="0 0 99.999997 99.999997"
   id="svg4158"
   version="1.1"
   inkscape:version="0.91 r13725"
   sodipodi:docname="icon2.svg">
  <defs
     id="defs4160" />
  <sodipodi:namedview
     id="base"
     pagecolor="#ffffff"
     bordercolor="#666666"
     borderopacity="1.0"
     inkscape:pageopacity="0.0"
     inkscape:pageshadow="2"
     inkscape:zoom="2.8"
     inkscape:cx="55.162567"
     inkscape:cy="100.63582"
     inkscape:document-units="px"
     inkscape:current-layer="layer1"
     showgrid="false"
     inkscape:window-width="1600"
     inkscape:window-height="837"
     inkscape:window-x="-8"
     inkscape:window-y="-8"
     inkscape:window-maximized="1"
     units="px"
     inkscape:snap-page="true" />
  <metadata
     id="metadata4163">
    <rdf:RDF>
      <cc:Work
         rdf:about="">
        <dc:format>image/svg+xml</dc:format>
        <dc:type
           rdf:resource="http://purl.org/dc/dcmitype/StillImage" />
        <dc:title></dc:title>
      </cc:Work>
    </rdf:RDF>
  </metadata>
  <g
     inkscape:label="Layer 1"
     inkscape:groupmode="layer"
     id="layer1"
     transform="translate(0,-952.36223)">
    <g
       id="g4747"
       transform="matrix(0.99995,0,0,0.99995,0.00699978,952.36623)"
       style="fill:#d40000">
      <circle
         id="circle4729"
         r="9.4980001"
         cy="14.444"
         cx="19.618"
         style="fill:#d40000" />
      <path
         id="path4731"
         d="m 47.965,35.389 c -12.567,0 -22.753,14.294 -22.753,31.927 0,8.415 2.324,18.357 6.116,15.07 0.499,11.574 7.548,15.765 16.196,15.765 8.833,0 16,-4.367 16.224,-16.521 4.295,3.853 6.972,-5.287 6.972,-14.317 0,-17.634 -10.189,-31.928 -22.755,-31.928"
         inkscape:connector-curvature="0"
         style="fill:#d40000" />
      <circle
         id="circle4733"
         r="11.02"
         cy="22.941999"
         cx="47.965"
         style="fill:#d40000" />
      <path
         id="path4735"
         d="m 21.01,67.31 c 0,-13.427 5.498,-25.16 13.631,-31.385 -3.6,-6.01 -8.992,-9.843 -15.03,-9.843 -10.835,10e-5 -19.618,12.325 -19.618,27.527 0,7.256 2,6.438 5.273,3.608 0.431,9.979 6.508,13.593 13.964,13.593 0.66,0 1.303,-0.04 1.939,-0.099 -0.159,-1.37 -0.163,-2.621 -0.163,-3.401"
         inkscape:connector-curvature="0"
         style="fill:#d40000" />
      <path
         id="path4737"
         d="m 80.11,21.237 c -7.37,0 -13.798,6.443 -17.233,16.01 7.251,6.481 12.04,17.54 12.04,30.07 0,1.074 -0.007,3.037 -0.424,4.994 1.62,0.549 3.383,0.805 5.234,0.805 7.719,0 13.986,-4.367 14.177,-16.521 3.754,3.852 6.094,5.601 6.094,-3.428 0,-17.634 -8.903,-31.928 -19.886,-31.928"
         inkscape:connector-curvature="0"
         style="fill:#d40000" />
      <circle
         id="circle4739"
         r="8.8380003"
         cy="10.684"
         cx="80.110001"
         style="fill:#d40000" />
    </g>
  </g>
</svg>
