<?xml version="1.0" encoding="UTF-8" standalone="no"?>
<!-- Created with Inkscape (http://www.inkscape.org/) -->

<svg
   xmlns:dc="http://purl.org/dc/elements/1.1/"
   xmlns:cc="http://creativecommons.org/ns#"
   xmlns:rdf="http://www.w3.org/1999/02/22-rdf-syntax-ns#"
   xmlns:svg="http://www.w3.org/2000/svg"
   xmlns="http://www.w3.org/2000/svg"
   xmlns:sodipodi="http://sodipodi.sourceforge.net/DTD/sodipodi-0.dtd"
   xmlns:inkscape="http://www.inkscape.org/namespaces/inkscape"
   width="100"
   height="100"
   viewBox="0 0 99.999997 99.999997"
   id="svg4158"
   version="1.1"
   inkscape:version="0.91 r13725"
   sodipodi:docname="icon1.svg">
  <defs
     id="defs4160" />
  <sodipodi:namedview
     id="base"
     pagecolor="#ffffff"
     bordercolor="#666666"
     borderopacity="1.0"
     inkscape:pageopacity="0.0"
     inkscape:pageshadow="2"
     inkscape:zoom="2.8"
     inkscape:cx="55.162567"
     inkscape:cy="100.63582"
     inkscape:document-units="px"
     inkscape:current-layer="layer1"
     showgrid="false"
     inkscape:window-width="1600"
     inkscape:window-height="837"
     inkscape:window-x="-8"
     inkscape:window-y="-8"
     inkscape:window-maximized="1"
     units="px"
     inkscape:snap-page="true" />
  <metadata
     id="metadata4163">
    <rdf:RDF>
      <cc:Work
         rdf:about="">
        <dc:format>image/svg+xml</dc:format>
        <dc:type
           rdf:resource="http://purl.org/dc/dcmitype/StillImage" />
        <dc:title></dc:title>
      </cc:Work>
    </rdf:RDF>
  </metadata>
  <g
     inkscape:label="Layer 1"
     inkscape:groupmode="layer"
     id="layer1"
     transform="translate(0,-952.36223)">
    <path
       style="fill:#d40000;fill-opacity:1;stroke:none;stroke-width:1;stroke-miterlimit:4;stroke-dasharray:none;stroke-dashoffset:0;stroke-opacity:1"
       d="M 50.000002,952.36223 A 49.999922,49.999922 0 0 0 1.5e-6,1002.3622 a 49.999922,49.999922 0 0 0 50.0000005,50 49.999922,49.999922 0 0 0 49.999997,-50 49.999922,49.999922 0 0 0 -49.999998,-49.99997 z m 0,7.62109 a 42.379116,42.379116 0 0 1 42.378907,42.37888 42.379116,42.379116 0 0 1 -42.378907,42.3789 42.379116,42.379116 0 0 1 -42.3789065,-42.3789 42.379116,42.379116 0 0 1 42.3789065,-42.37888 z m 0.03125,9.89063 a 8.6088142,8.6088142 0 0 0 -8.609375,8.60937 8.6088142,8.6088142 0 0 0 8.609375,8.60743 8.6088142,8.6088142 0 0 0 8.609375,-8.60743 8.6088142,8.6088142 0 0 0 -8.609375,-8.60937 z m 9.285156,23.1875 -23.658203,0.82226 0,3.89649 1.660156,-0.0645 c 2.11289,-0.0811 3.763454,0.0608 4.683594,0.40235 0.89865,0.3337 1.666789,1.06492 1.855469,1.76562 l -0.1875,26.24423 c -0.27421,0.5929 -0.806211,1.0618 -1.494141,1.3183 -0.28221,0.1052 -1.313441,0.174 -3.107422,0.209 l -2.685546,0.053 0,3.9571 30.177734,0 0,-3.9825 -2.021484,0 c -3.06244,0 -4.427694,-0.3939 -4.933594,-1.4121 l -0.289063,-33.20899 z"
       id="path4719"
       inkscape:connector-curvature="0" />
  </g>
</svg>
